HIERARCHY
ROOT pelvis
{
  OFFSET 0 100 0
  CHANNELS 6 Xposition Yposition Zposition Zrotation Xrotation Yrotation
  JOINT pelvis_right_femur
  {
    OFFSET -10.78128 -3.44521 -0.5502486
    CHANNELS 3 Zrotation Xrotation Yrotation
    JOINT right_femur_tibia
    {
      OFFSET -0.8047443 -44.0398 -0.1307829
      CHANNELS 3 Zrotation Xrotation Yrotation
      JOINT right_tibia_foot
      {
        OFFSET 3.006224 -47.83518 -5
        CHANNELS 3 Zrotation Xrotation Yrotation
        End Site
        {
          OFFSET 0 -5 15
        }
      }
    }
  }
  JOINT pelvis_left_femur
  {
    OFFSET 10.78128 -3.44521 -0.5502486
    CHANNELS 3 Zrotation Xrotation Yrotation
    JOINT left_femur_tibia
    {
      OFFSET 0.8047443 -44.0398 -0.1307829
      CHANNELS 3 Zrotation Xrotation Yrotation
      JOINT left_tibia_foot
      {
        OFFSET -4.370144 -48.10324 -4.275266
        CHANNELS 3 Zrotation Xrotation Yrotation
        End Site
        {
          OFFSET 0 -5 15
        }
      }
    }
  }
  JOINT pelvis_spine1
  {
    OFFSET 0 6.468898 -3.129235
    CHANNELS 3 Zrotation Xrotation Yrotation
    JOINT spine1
    {
      OFFSET 0 23.15396 4.99043
      CHANNELS 3 Zrotation Xrotation Yrotation
      JOINT spine2
      {
        OFFSET 0 20.79997 -5.064912
        CHANNELS 3 Zrotation Xrotation Yrotation
        JOINT neck
        {
          OFFSET 0 14.38658 9.616178
          CHANNELS 3 Zrotation Xrotation Yrotation
          End Site
          {
            OFFSET 0 20 0
          }
        }
      }
      JOINT right_manubrium
      {
        OFFSET -5.722621 16.35077 3.967754
        CHANNELS 3 Zrotation Xrotation Yrotation
        JOINT right_clavicle
        {
          OFFSET -13.16364 1.694482 -4.693211
          CHANNELS 3 Zrotation Xrotation Yrotation
          JOINT right_humerus
          {
            OFFSET -28.5034 -0.3100689 -2.792744
            CHANNELS 3 Zrotation Xrotation Yrotation
            JOINT right_radius
            {
              OFFSET -25.15693 0.02248979 -1.271978
              CHANNELS 3 Zrotation Xrotation Yrotation
              End Site
              {
                OFFSET -15 0 0
              }
            }
          }
        }
      }
      JOINT left_manubrium
      {
        OFFSET 5.722621 16.35077 3.967754
        CHANNELS 3 Zrotation Xrotation Yrotation
        JOINT left_clavicle
        {
          OFFSET 13.16364 1.694482 -4.693211
          CHANNELS 3 Zrotation Xrotation Yrotation
          JOINT left_humerus
          {
            OFFSET 29.39168 -1.063119 -2.237045
            CHANNELS 3 Zrotation Xrotation Yrotation
            JOINT left_radius
            {
              OFFSET 24.59957 -0.9528479 0.9047498
              CHANNELS 3 Zrotation Xrotation Yrotation
              End Site
              {
                OFFSET 15 -0 -0
              }
            }
          }
        }
      }
    }
  }
}
MOTION
Frames: 15
Frame Time: 0.0416666666667
877.5562 101.2376 3049.12 4.227841 -4.345593 32.10853 -0.02220727 -23.93693 1.533807 -0 21.77383 -0 1.666608 -2.481353 -8.589223 -5.319766 13.6083 -8.044234 -0 13.42225 -0 -3.413661 -19.19635 13.90946 -4.212453 -2.433424 2.312144 -0.9372976 9.642447 -6.017434 1.214017 20.53092 8.164947 7.031103 -15.93687 5.910643 8.19111 -15.86533 11.86654 80.39571 36.70911 -9.7769 -0 0 18.67408 -23.31368 12.69131 13.1106 9.897822 -20.63355 0.1867475 -87.42329 7.323195 11.30249 0 0 -8.686649 12.55774 16.8388 -6.805337
880.8908 99.8801 3054.549 4.101242 -3.63192 32.67964 0.03231924 -25.55309 1.453624 -0 14.8982 -0 2.036204 -2.337741 -8.868859 -5.262018 16.1857 -7.902923 -0 15.30637 -0 -4.835225 -19.60678 12.73626 -4.173104 -2.094581 2.018574 -0.7590358 9.406698 -6.075636 1.221767 20.52982 8.328689 7.045577 -16.3963 6.119925 7.955417 -15.48582 11.77133 80.51112 36.81591 -9.858794 -0 0 17.71233 -23.11221 12.81109 13.10694 9.968518 -20.53148 0.1174766 -86.72807 7.417554 9.990493 0 0 -10.42245 13.22874 16.41621 -7.836585
884.3421 98.63522 3060.433 3.87581 -3.235655 33.1729 0.631075 -25.83056 1.974946 -0 11.35496 -0 2.21807 -1.851528 -9.103458 -4.964631 18.27736 -7.772511 -0 18.9944 -0 -6.474142 -18.91511 11.88058 -4.090444 -1.808096 1.828467 -0.6543297 9.210158 -6.039272 1.257073 20.60487 8.42078 7.035106 -16.66635 6.296945 7.77524 -15.17758 11.6618 80.55847 36.91827 -9.834302 -0 0 16.92189 -22.90338 12.93532 13.06804 9.971366 -20.39404 0.04530322 -86.27937 7.606334 9.07538 0 0 -11.54659 13.71186 16.20339 -8.522332
887.8661 97.79208 3066.739 3.598518 -3.419895 33.53386 1.865558 -24.77731 3.046815 -0 11.39841 -0 1.973082 -1.476936 -9.280292 -4.383084 19.56588 -7.641987 -0 24.63984 -0 -7.921853 -17.05856 11.68722 -3.990376 -1.616005 1.775221 -0.6611851 9.12497 -5.911258 1.313871 20.74169 8.421223 7.017472 -16.67842 6.389111 7.69616 -14.99808 11.57026 80.5268 37.01169 -9.68445 -0 0 16.46384 -22.78415 13.03541 13.02011 9.900887 -20.24567 -0.04795154 -86.15427 7.806028 8.734234 0 0 -11.79612 13.92958 16.22948 -8.767294
891.3971 97.57101 3073.322 3.424306 -4.295366 33.6543 3.512034 -22.33869 4.364143 -0 14.2237 -0 1.216042 -1.720184 -9.362983 -3.644238 19.5274 -7.511569 -0 32.18638 -0 -8.837866 -14.35929 12.3656 -3.893805 -1.546797 1.8776 -0.8028451 9.191754 -5.6955 1.380217 20.91912 8.326193 7.011725 -16.39279 6.3563 7.740321 -14.98796 11.51658 80.40033 37.09267 -9.387018 -0 0 16.45165 -22.83737 13.0927 12.99965 9.766528 -20.11237 -0.1791053 -86.38684 7.929073 9.065552 0 0 -11.07097 13.84406 16.4833 -8.53704
894.8613 98.05144 3079.924 3.546871 -5.662205 33.44136 5.025583 -18.47151 5.480928 -0 17.97292 -0 0.1267184 -2.916705 -9.295616 -3.03144 17.54441 -7.394728 -0 41.01403 -0 -9.134638 -11.51456 13.79106 -3.809492 -1.607276 2.127416 -1.068495 9.395368 -5.404059 1.438787 21.11241 8.154862 7.030346 -15.82303 6.188621 7.893695 -15.15204 11.50038 80.17707 37.15059 -8.948545 -0 0 16.89054 -23.0848 13.10063 13.03583 9.589812 -20.02158 -0.3539133 -86.9413 7.921345 10.0332 0 0 -9.512636 13.46947 16.90148 -7.865243
898.2003 99.1089 3086.258 4.043488 -7.003488 32.91303 5.823864 -13.38542 6.094495 -0 20.45856 -0 -0.8151766 -4.920434 -8.976469 -2.785713 13.22434 -7.283142 -0 49.62149 -0 -9.010861 -9.290495 15.46613 -3.73256 -1.776409 2.489093 -1.412063 9.673464 -5.060146 1.473391 21.29827 7.944333 7.074707 -15.04331 5.912888 8.111343 -15.45571 11.50559 79.8781 37.17228 -8.413464 -0 0 17.6668 -23.47158 13.06388 13.13523 9.393606 -19.99184 -0.5634458 -87.71758 7.784766 11.47165 0 0 -7.45855 12.87003 17.38207 -6.84597
901.4018 100.4284 3092.155 4.763292 -7.805633 32.19627 5.73985 -7.725275 6.257458 -0 20.48742 -0 -1.066182 -7.037736 -8.291303 -2.824697 6.847948 -7.087579 -0 55.87467 -0 -8.782187 -8.058143 16.82242 -3.649563 -2.010628 2.914867 -1.774649 9.950295 -4.689044 1.47826 21.46296 7.733163 7.134848 -14.16412 5.582823 8.339273 -15.84259 11.51192 79.53257 37.15471 -7.832857 -0 0 18.60798 -23.89877 12.99693 13.28255 9.192241 -20.01587 -0.7851728 -88.5981 7.572611 13.16343 0 0 -5.275361 12.13911 17.83163 -5.608323
904.5029 101.6275 3097.653 5.406496 -7.981769 31.41293 5.152176 -2.273181 6.208579 -0 18.54774 -0 -0.5077665 -8.613509 -7.290552 -2.733964 -0.5224355 -6.656496 -0 57.98835 -0 -8.659905 -7.661563 17.70207 -3.546592 -2.263742 3.365721 -2.112735 10.16707 -4.304695 1.460419 21.60702 7.545729 7.193679 -13.28581 5.25657 8.536426 -16.26211 11.5031 79.1543 37.10858 -7.225655 -0 0 19.5717 -24.2779 12.91973 13.45675 8.990682 -20.05899 -0.9877644 -89.50182 7.359127 14.93538 0 0 -3.198498 11.36308 18.20977 -4.272555
907.5551 102.3973 3102.899 5.72324 -7.837679 30.61527 4.587931 2.600589 6.056404 -0 15.98905 -0 0.3926574 -9.748879 -6.21159 -2.151319 -7.636557 -5.944433 -0 55.43174 -0 -8.664349 -7.751599 18.41274 -3.415268 -2.506904 3.82171 -2.407719 10.29079 -3.908509 1.43218 21.73887 7.389357 7.23355 -12.46832 4.976338 8.681901 -16.68663 11.46915 78.73734 37.04822 -6.577239 -0 0 20.49273 -24.56111 12.85018 13.64542 8.791387 -20.0798 -1.138283 -90.40068 7.20469 16.70085 0 0 -1.304654 10.59317 18.52788 -2.913927
910.6029 102.5755 3108.02 5.609271 -7.614544 29.80927 4.283596 6.950116 5.771083 -0 13.85347 -0 1.077581 -11.07765 -5.191925 -1.096297 -13.76165 -5.116876 -0 48.99103 -0 -8.709491 -8.053293 19.23162 -3.256031 -2.733047 4.274354 -2.654703 10.30908 -3.504018 1.402491 21.86238 7.261803 7.241173 -11.73958 4.762633 8.769498 -17.10714 11.4063 78.27546 36.981 -5.87695 -0 0 21.36497 -24.73456 12.79908 13.84318 8.602664 -20.05438 -1.208286 -91.29075 7.139041 18.4233 -0 0 0.3962894 9.84928 18.81289 -1.569904
913.6983 102.1598 3113.099 5.086523 -7.275603 28.99033 4.148178 10.81688 5.357506 -0 12.62484 -0 1.365783 -12.89345 -4.171418 0.1036162 -18.71241 -4.404571 -0 40.29501 -0 -8.687955 -8.344517 20.08994 -3.080479 -2.945416 4.708947 -2.849077 10.22836 -3.113487 1.375474 21.97091 7.158512 7.210464 -11.1225 4.619976 8.802057 -17.51337 11.31801 77.78857 36.90799 -5.159899 -0 0 22.18819 -24.80067 12.77076 14.03795 8.442131 -19.98628 -1.181304 -92.14814 7.16393 20.04213 -0 0 1.863486 9.150061 19.07887 -0.2864051
916.9177 101.2885 3118.22 4.303986 -6.695155 28.17239 3.953436 14.05307 4.902579 -0 12.53461 -0 1.395754 -14.73919 -3.083536 1.043476 -22.45091 -3.952693 -0 31.35525 -0 -8.463141 -8.445938 20.74627 -2.910833 -3.141918 5.093678 -2.984924 10.07855 -2.779349 1.355496 22.05365 7.074307 7.144261 -10.64854 4.5448 8.791954 -17.87687 11.21664 77.33291 36.83421 -4.515586 -0 0 22.92671 -24.77022 12.76631 14.20024 8.330456 -19.89836 -1.061751 -92.90953 7.265569 21.43316 -0 0 3.013139 8.537472 19.32767 0.8461585
920.3538 100.1963 3123.485 3.543125 -5.882667 27.39763 3.481932 16.49052 4.536731 -0 13.80208 -0 1.371082 -15.64874 -2.00429 1.378128 -24.88036 -3.839451 -0 24.12077 -0 -7.886736 -8.316912 21.05137 -2.774101 -3.310178 5.386598 -3.060905 9.909705 -2.548714 1.35113 22.10546 7.002449 7.052732 -10.3501 4.531053 8.762153 -18.15473 11.12212 76.98248 36.77503 -4.053995 -0 0 23.51358 -24.66038 12.78522 14.28776 8.280566 -19.81535 -0.8736473 -93.49438 7.427632 22.44309 -0 0 3.780441 8.07014 19.56573 1.708971
924.0867 99.15392 3128.994 3.129325 -5.024513 26.72948 2.629782 18.08075 4.412438 -0 16.74316 -0 1.457597 -14.67176 -1.161835 0.9216168 -25.89604 -4.111327 -0 19.89116 -0 -6.904646 -8.101155 21.01036 -2.69347 -3.43707 5.553546 -3.080769 9.773254 -2.456528 1.371428 22.1273 6.936605 6.948193 -10.2479 4.572263 8.739632 -18.31121 11.05593 76.79785 36.74759 -3.861506 -0 0 23.88966 -24.48931 12.82419 14.26332 8.293552 -19.75375 -0.6463374 -93.84369 7.636462 22.96127 -0 0 4.162095 7.794569 19.80664 2.207964
